<svg width="80" height="24" fill="none" xmlns="http://www.w3.org/2000/svg"><path fill-rule="evenodd" clip-rule="evenodd" d="M0 7.56v.06l13.52 6.35L27.1 7.59v-.01L13.52 1.2 0 7.56zm4.88.03l8.64-4.07 8.65 4.07-8.65 4.06-8.64-4.06zm8.64 8.85L0 10.18v2.31l13.52 6.27 13.58-6.29v-2.31l-13.58 6.28zm0 4.69L0 14.87v2.32l13.52 6.27 13.58-6.3v-2.31l-13.58 6.28zm63.4-9.03a4 4 0 00-1.04-2.72c-.32-.35-.7-.62-1.13-.81a3.26 3.26 0 00-2.74 0c-.43.2-.8.46-1.12.81a3.93 3.93 0 00-1.04 2.72 4 4 0 001.04 2.72 3.26 3.26 0 003.87.82c.42-.2.8-.47 1.12-.82a3.93 3.93 0 001.04-2.72zm3.08 0a6.63 6.63 0 01-1.93 4.71 6.72 6.72 0 01-9.35 0 6.52 6.52 0 01-1.93-4.7c0-.92.17-1.78.52-2.59A6.8 6.8 0 0170.83 6 6.56 6.56 0 0180 12.1zm-14.28 6.22a4.08 4.08 0 01-1.78.4c-.46 0-.9-.07-1.32-.19a2.87 2.87 0 01-1.1-.6 2.9 2.9 0 01-.75-1.07 4.13 4.13 0 01-.28-1.6V.33h3.15v14.38c0 .52.1.88.31 1.08.2.2.45.3.74.3.36 0 .7-.12 1.03-.33v2.56zM59.1 5.8l-5.57 14.95a5.1 5.1 0 01-1.62 2.41 3.94 3.94 0 01-3.37.61l-1.02-2.91a4.04 4.04 0 001.47.37c.49 0 .93-.11 1.33-.34.4-.22.7-.64.92-1.25l.43-1.26L46.89 5.8h3.37l2.84 8.1 2.68-8.1h3.32zM46.15 3.9h-8.06v4.06h7.95v2.74h-7.95v7.7h-3.25V1.01h11.3V3.9z" fill="#fff"/></svg>