<svg width="13" height="13" fill="none" xmlns="http://www.w3.org/2000/svg"><path fill-rule="evenodd" clip-rule="evenodd" d="M12.28 9.03c-.87 0-1.74-.15-2.6-.44-.22-.07-.5 0-.72.15l-1.6 1.59A11.24 11.24 0 012.6 5.56l1.59-1.59c.22-.21.29-.5.14-.72A9.71 9.71 0 013.97.72C3.97.3 3.68 0 3.25 0H.72C.3 0 0 .29 0 .72 0 7.52 5.49 13 12.28 13c.43 0 .72-.29.72-.72V9.75c0-.43-.29-.72-.72-.72zm-.72-2.53H13C13 2.89 10.11 0 6.5 0v1.44a5.02 5.02 0 015.06 5.06zm-2.9 0h1.45A3.58 3.58 0 006.5 2.89v1.44c1.23 0 2.17.94 2.17 2.17z" fill="#fff"/></svg>