<svg width="80" height="80" fill="none" xmlns="http://www.w3.org/2000/svg"><path fill-rule="evenodd" clip-rule="evenodd" d="M11.13 51.9h54.71v-6.14h-54.7v6.14zm37.88 9.21h3.03v2.71h-27.1v-2.71h3.02a.91.91 0 00.92-.91v-6.48H48.1v6.48c0 .5.4.91.91.91zM11.13 43.94h54.71v-30.9h-54.7v30.9zm-.9-32.72a.91.91 0 00-.92.9v40.69c0 .5.4.9.91.9h16.83v5.58h-3.03a.91.91 0 00-.91.9v4.54c0 .5.4.91.91.91h28.93a.91.91 0 00.92-.9V60.2a.91.91 0 00-.92-.91h-3.03v-5.57h16.83a.91.91 0 00.91-.91V12.13a.91.91 0 00-.9-.91H10.21z" fill="#62E0D9"/><path fill-rule="evenodd" clip-rule="evenodd" d="M37.24 47.63a.91.91 0 00-.91.91.91.91 0 001.82 0 .91.91 0 00-.91-.9z" fill="#62E0D9"/><rect x="52.46" y="29.15" width="19.71" height="40.61" rx="1.26" fill="#1B2330" stroke="#62E0D9" stroke-width="1.26"/><path fill="#fff" stroke="#62E0D9" stroke-width=".46" d="M52.06 33.3h20.51v.45H52.06zm0 29.12h20.51v.46H52.06z"/><path clip-rule="evenodd" d="M61.86 66.75a.91.91 0 100-1.82.91.91 0 000 1.82z" stroke="#62E0D9" stroke-width=".78"/><path fill-rule="evenodd" clip-rule="evenodd" d="M44.15 23.05H44l-4.02 1.6-4.56-1.6-4.26 1.44c-.15.08-.3.16-.3.38v11.46c0 .23.15.38.38.38h.15l4.03-1.6 4.56 1.6 4.25-1.44c.15-.08.3-.23.3-.38V23.43c0-.22-.15-.38-.38-.38zm-4.17 11.38l-4.56-1.53v-8.71l4.56 1.54v8.7z" fill="#62E0D9"/><path fill-rule="evenodd" clip-rule="evenodd" d="M32.68 23.05c-1.02 0-1.82.7-1.82 1.6 0 1.18 1.82 2.95 1.82 2.95s1.82-1.77 1.82-2.95c0-.9-.8-1.6-1.82-1.6zm0 2.28c-.4 0-.7-.28-.7-.63s.3-.64.7-.64c.4 0 .7.28.7.64s-.3.63-.7.63z" fill="#fff"/></svg>