<svg width="53" height="69" fill="none" xmlns="http://www.w3.org/2000/svg"><path clip-rule="evenodd" d="M33.46 28.23l-9.4 9.6-6.93-7.06-3.46 3.53 10.39 10.59L39.9 28.72l-3.46-3.53-2.99 3.04z" stroke="#62E0D9" stroke-width="2.36"/><path clip-rule="evenodd" d="M43.63 8.5c-4.11 0-8.2-.87-11.91-2.68a23.57 23.57 0 01-5.17-3.31 23.55 23.55 0 01-5.18 3.31A27.2 27.2 0 019.47 8.5H1.31v31.22c0 5.47 2.16 10.73 6.02 14.54 5.66 5.57 19.2 12.82 19.2 12.82s13.55-7.25 19.21-12.82a20.44 20.44 0 006.02-14.54V8.5h-8.14z" stroke="#62E0D9" stroke-width="2.36"/><path clip-rule="evenodd" d="M45.19 19.8v20.18a13.7 13.7 0 01-4.02 9.7c-3.55 3.5-11.64 8.3-14.62 10-3-1.7-11.09-6.5-14.63-10a13.7 13.7 0 01-4.01-9.7v-24.5h1.56a33.89 33.89 0 0017.08-4.57 35.03 35.03 0 002.35 1.25 33.86 33.86 0 0014.73 3.32h1.56v4.31z" stroke="#62E0D9" stroke-width="2.36"/></svg>