<svg width="80" height="80" fill="none" xmlns="http://www.w3.org/2000/svg"><path d="M53.57 18.23l-.36.35.36-.35zm3.31 3.31l-.35.35.35-.35zm0 .7l.35.36-.35-.35zM34.23 44.87l-.36-.35.36.35zm-4.02 0l-.38-.32a.5.5 0 00.02.68l.36-.36zM20.14 34.82l.36-.35-.36.35zm10.07 10.04l-.36.36a.5.5 0 00.74-.03l-.38-.33zM20.15 34.11l.35.35-.35-.35zm3.3-3.3l-.34-.36.35.35zm.72 0l.35-.36-.35.35zm8.05 8.03l-.36.35a.5.5 0 00.7 0l-.34-.35zm.35 1.06l-.35-.35.35.35zM53.2 19.3l.36-.36a.5.5 0 00-.71 0l.35.35zM31.86 39.9l.36-.35-.36.35zm-8.05-8.04l.36-.35a.5.5 0 00-.71 0l.35.35zm-2.6 2.6l-.36-.35a.5.5 0 000 .7l.36-.35zm9.7 9.7l-.35.35.35-.36zm0 0l.36-.36-.36.35zm2.61 0l-.35-.36.35.35zm22.3-22.27l.35.36a.5.5 0 000-.71l-.35.35zm-5.43-.43l.37-.34-.37.34zm.03.03l.4-.3-.4.3zm2.85 3.75l.4-.3-.4.3zm.03.04l.42-.26-.42.26zm-.84.55l.42-.26a.51.51 0 00-.02-.04l-.4.3zm-2.82-3.71l.4-.3a.51.51 0 00-.03-.04l-.37.34zm-2.58 2.63l.37-.33-.37.33zm.04.05l-.4.29.4-.29zm2.74 3.88l-.4.29.4-.29zm.04.05l.44-.23-.44.23zm-.87.5l.44-.23a.5.5 0 00-.03-.06l-.41.3zm-2.7-3.83l.4-.29a.5.5 0 00-.04-.04l-.37.33zM34 21.8a1 1 0 00-1-1v1h1zm0 1.56V21.8h-1v1.56h1zm-1 1a1 1 0 001-1h-1v1zm-1-1a1 1 0 001 1v-1h-1zm0-1.56v1.56h1V21.8h-1zm1-1a1 1 0 00-1 1h1v-1zM34 53a1 1 0 00-1-1v1h1zm0 1.55V53h-1v1.56h1zm-1 1a1 1 0 001-1h-1v1zm-1-1a1 1 0 001 1v-1h-1zM32 53v1.56h1V53h-1zm1-1a1 1 0 00-1 1h1v-1zm14.06-14.03a1 1 0 00-1 1h1v-1zm1.56 0h-1.56v1h1.56v-1zm1 1a1 1 0 00-1-1v1h1zm-1 1a1 1 0 001-1h-1v1zm-1.56 0h1.56v-1h-1.56v1zm-1-1a1 1 0 001 1v-1h-1zm-30.25-1a1 1 0 00-1 1h1v-1zm1.56 0h-1.56v1h1.56v-1zm1 1a1 1 0 00-1-1v1h1zm-1 1a1 1 0 001-1h-1v1zm-1.56 0h1.56v-1h-1.56v1zm-1-1a1 1 0 001 1v-1h-1zm39.1-21.08a1 1 0 00-1.4 0l.7.7.7-.7zm3.32 3.3l-3.31-3.3-.7.7 3.3 3.31.71-.7zm.3.71a1 1 0 00-.3-.7l-.7.7h1zm-.3.71a1 1 0 00.3-.7h-1l.7.7zM34.58 45.22L57.23 22.6l-.7-.7-22.66 22.6.71.72zm-2.36.97c.85 0 1.7-.32 2.36-.97l-.7-.71a2.34 2.34 0 01-1.66.68v1zm-2.37-.97c.66.65 1.51.97 2.37.97v-1c-.6 0-1.2-.22-1.66-.68l-.7.7zm.74-.03l22.65-26.63-.76-.65-22.65 26.63.76.65zm-10.8-10.02l10.06 10.05.7-.71L20.5 34.46l-.7.71zm-.3-.7a1 1 0 00.3.7l.7-.7h-1zm.3-.71a1 1 0 00-.3.7h1l-.7-.7zm3.32-3.31l-3.32 3.3.7.71 3.32-3.3-.7-.71zm1.4 0a1 1 0 00-1.4 0l.7.7.7-.7zm8.06 8.04l-8.05-8.04-.7.7 8.04 8.04.7-.7zM52.5 17.88l-20.65 20.6.7.71 20.65-20.6-.7-.71zm-.03.03L29.83 44.54l.76.65 22.65-26.63-.76-.65zM32.92 40.25l20.65-20.6-.71-.71-20.64 20.6.7.71zm-1.41 0a1 1 0 001.41 0l-.7-.7-.71.7zm-8.05-8.03l8.05 8.03.7-.7-8.04-8.04-.71.7zm-1.9 2.6l2.6-2.6-.7-.71-2.6 2.6.7.7zm9.7 8.98l-9.7-9.69-.7.7 9.7 9.7.7-.7zm0 0l-.7.7.7-.7zm.96.4c-.35 0-.7-.14-.95-.4l-.71.7a2.33 2.33 0 001.66.7v-1zm.95-.4a1.34 1.34 0 01-.95.4v1c.6 0 1.2-.23 1.65-.7l-.7-.7zm22.3-22.26L33.17 43.8l.7.7 22.3-22.25-.7-.71zm-2.61-1.9l2.6 2.6.71-.7-2.6-2.6-.71.7zM32.22 13A25.2 25.2 0 007 38.17h1A24.2 24.2 0 0132.22 14v-1zm18.54 8.12A25.17 25.17 0 0032.22 13v1a24.17 24.17 0 0117.8 7.8l.74-.68zm.06.07a.97.97 0 00-.06-.07l-.73.67.8-.6zm2.85 3.75l-2.85-3.75-.8.6 2.85 3.76.8-.6zm.05.08a.95.95 0 00-.05-.08l-.8.6.85-.52zm3.71 13.16c0-4.82-1.35-9.33-3.7-13.16l-.86.53c2.26 3.67 3.56 8 3.56 12.63h1zM32.22 63.35a25.2 25.2 0 0025.21-25.18h-1a24.2 24.2 0 01-24.21 24.18v1zM7 38.17a25.2 25.2 0 0025.22 25.18v-1A24.2 24.2 0 018 38.17H7zm2 0A23.2 23.2 0 0132.22 15v-1A24.2 24.2 0 008 38.17h1zm23.22 23.18A23.2 23.2 0 019 38.17H8a24.2 24.2 0 0024.22 24.18v-1zm23.21-23.18a23.2 23.2 0 01-23.21 23.18v1a24.2 24.2 0 0024.21-24.18h-1zm-3.4-12.08a23.03 23.03 0 013.4 12.09h1c0-4.63-1.3-8.94-3.55-12.61l-.85.52zm-2.79-3.67l2.82 3.71.8-.6-2.82-3.72-.8.6zM32.22 15c6.74 0 12.81 2.87 17.06 7.46l.73-.68A24.17 24.17 0 0032.21 14v1zm0 2.68a20.51 20.51 0 00-20.53 20.5h1c0-10.77 8.74-19.5 19.53-19.5v-1zm15.21 6.74a20.5 20.5 0 00-15.21-6.74v1a19.5 19.5 0 0114.47 6.4l.74-.66zm.08.1a1 1 0 00-.08-.1l-.74.67.82-.58zm2.74 3.87l-2.74-3.88-.82.58 2.75 3.88.81-.58zm.07.1a.98.98 0 00-.07-.1l-.81.58.88-.47zm2.42 9.68c0-3.5-.87-6.79-2.42-9.67l-.88.47a19.39 19.39 0 012.3 9.2h1zm-20.52 20.5a20.51 20.51 0 0020.53-20.5h-1c0 10.77-8.75 19.5-19.53 19.5v1zm-20.53-20.5c0 11.33 9.19 20.5 20.53 20.5v-1a19.51 19.51 0 01-19.53-19.5h-1zm2 0c0-10.2 8.29-18.5 18.53-18.5v-1a19.51 19.51 0 00-19.53 19.5h1zm18.53 18.5a18.51 18.51 0 01-18.53-18.5h-1c0 10.77 8.74 19.5 19.53 19.5v-1zm18.52-18.5c0 10.22-8.29 18.5-18.52 18.5v1a19.51 19.51 0 0019.53-19.5h-1zm-2.17-8.7a18.39 18.39 0 012.17 8.7h1c0-3.31-.83-6.44-2.29-9.17l-.88.47zm-2.68-3.78l2.71 3.83.82-.58-2.7-3.83-.83.58zm-13.67-6.01a18.5 18.5 0 0113.71 6.06l.74-.67a19.5 19.5 0 00-14.45-6.4v1z" fill="#62E0D9"/><path clip-rule="evenodd" d="M49.51 44.22a3.46 3.46 0 01-3.46 3.45 3.46 3.46 0 01-3.46-3.45 3.46 3.46 0 013.46-3.45 3.46 3.46 0 013.46 3.45z" stroke="#62E0D9" stroke-linejoin="round"/><path clip-rule="evenodd" d="M46.05 47.67c-1.46 0-2.77.45-3.72.89a2.57 2.57 0 00-1.46 2.33v5.42c0 .95.77 1.72 1.73 1.72v6.91c0 .95.77 1.73 1.72 1.73h3.46c.96 0 1.73-.78 1.73-1.73v-6.9c.96 0 1.73-.78 1.73-1.73v-5.42a2.57 2.57 0 00-1.46-2.33 8.97 8.97 0 00-3.73-.89z" stroke="#62E0D9" stroke-linecap="round" stroke-linejoin="round"/><path clip-rule="evenodd" d="M59.9 44.22a3.46 3.46 0 01-3.47 3.45 3.46 3.46 0 01-3.46-3.45 3.46 3.46 0 013.46-3.45 3.46 3.46 0 013.46 3.45z" stroke="#62E0D9" stroke-linejoin="round"/><path clip-rule="evenodd" d="M56.43 47.67a9 9 0 00-3.72.89 2.57 2.57 0 00-1.47 2.33v5.42c0 .95.78 1.72 1.73 1.72v6.91c0 .95.78 1.73 1.73 1.73h3.46c.96 0 1.73-.78 1.73-1.73v-6.9c.96 0 1.73-.78 1.73-1.73v-5.42a2.57 2.57 0 00-1.47-2.33 8.98 8.98 0 00-3.72-.89z" stroke="#62E0D9" stroke-linecap="round" stroke-linejoin="round"/><path clip-rule="evenodd" d="M70.27 44.22a3.46 3.46 0 01-3.46 3.45 3.46 3.46 0 01-3.46-3.45 3.46 3.46 0 013.46-3.45 3.46 3.46 0 013.46 3.45z" stroke="#62E0D9" stroke-linejoin="round"/><path clip-rule="evenodd" d="M66.81 47.67a9 9 0 00-3.72.89 2.57 2.57 0 00-1.47 2.33v5.42c0 .95.78 1.72 1.73 1.72v6.91c0 .95.78 1.73 1.73 1.73h3.46c.96 0 1.73-.78 1.73-1.73v-6.9c.96 0 1.73-.78 1.73-1.73v-5.42a2.57 2.57 0 00-1.47-2.33 8.97 8.97 0 00-3.72-.89z" stroke="#62E0D9" stroke-linecap="round" stroke-linejoin="round"/></svg>