<svg width="80" height="80" fill="none" xmlns="http://www.w3.org/2000/svg"><path d="M71.81 20.35l.54.01-.54-.01zm-.98 40.8l-.38.37.38-.37zm-.15-.4l.54.02-.54-.02zm1.1-.57l-.54-.02a.54.54 0 00.64.55l-.1-.53zm1.1-39.2l.15-.52a.54.54 0 00-.7.5l.55.02zm-20.2-5.13l-.46-.3.45.3zM48.57 22v.54a.54.54 0 00.44-.24l-.45-.3zm20.01 38.24v.54a.54.54 0 00.38-.92l-.38.38zM53.41 16.69v-.54a.54.54 0 00-.45.24l.45.3zm-4.1 6.14l-.45-.3.45.3zm23.04-3.55a1.08 1.08 0 00-1.08 1.05l1.08.03v-1.08zm3.35 3.2c0-1.83-1.57-3.2-3.35-3.2v1.08c1.25 0 2.27.96 2.27 2.13h1.08zm0 35.1V22.49h-1.08v35.09h1.08zm-4.48 4.27c2.4 0 4.48-1.85 4.48-4.27h-1.08c0 1.76-1.52 3.19-3.4 3.19v1.08zm-.77-.33c.2.21.48.33.77.33v-1.08l-.77.75zm-.3-.78a1.08 1.08 0 00.3.78l.77-.75-1.08-.03zm1.12-40.4l-1.13 40.4 1.08.03 1.13-40.4-1.08-.04zm1.05 39.85l1.1-39.2-1.08-.03-1.1 39.2 1.08.03zm1.22-2.61c0 .97-.76 1.87-1.86 2.07l.2 1.06a3.25 3.25 0 002.74-3.13h-1.08zm0-35.1v35.1h1.08V22.49h-1.08zm-.81-.98c.5.14.8.57.8.99h1.09c0-.95-.67-1.76-1.6-2.03l-.3 1.04zm-19.6-6.43c-.37 0-.7.18-.9.48l.9.6v-1.08zm12.77 0H53.12v1.08H65.9v-1.08zm3.2 3.2a3.2 3.2 0 00-3.2-3.2v1.08c1.17 0 2.13.96 2.13 2.13h1.08zm0 39.31v-39.3h-1.07v39.3h1.08zm2.12 2.1a2.11 2.11 0 01-2.11-2.1h-1.08a3.19 3.19 0 003.2 3.19v-1.08zm1.08 1.09a1.08 1.08 0 00-1.08-1.08v1.08h1.08zm-1.08 1.08a1.08 1.08 0 001.08-1.08h-1.08v1.08zm-48.97 0h48.97v-1.08H22.25v1.08zm-6.4-6.4a6.4 6.4 0 006.4 6.4v-1.08a5.32 5.32 0 01-5.33-5.31h-1.08zm0-30.8v30.8h1.07v-30.8h-1.08zm3.2-3.2a3.2 3.2 0 00-3.2 3.2h1.07c0-1.17.96-2.12 2.13-2.12v-1.08zm29.53 0H19.05v1.08h29.52v-1.08zm3.64-5.9l-4.1 6.14.9.6 4.1-6.14-.9-.6zm14.73 42.03c0 1.19.48 2.26 1.26 3.03l.76-.76a3.17 3.17 0 01-.94-2.27h-1.08zm0-39.3v39.3h1.08v-39.3h-1.08zm-1.05-1.04c.58 0 1.05.47 1.05 1.04h1.08a2.13 2.13 0 00-2.13-2.13v1.08zm-12.49 0H65.9v-1.09H53.4v1.08zm-3.65 5.89l4.1-6.14-.9-.6-4.1 6.14.9.6zm-.9.48c.36 0 .7-.18.9-.48l-.9-.6v1.08zm-29.8 0h29.8v-1.08h-29.8v1.08zM18 24.65c0-.57.47-1.04 1.05-1.04v-1.08c-1.17 0-2.13.95-2.13 2.12H18zm0 30.8v-30.8h-1.08v30.8H18zm4.25 4.24A4.24 4.24 0 0118 55.46h-1.08a5.32 5.32 0 005.33 5.3V59.7zm46.34 0H22.25v1.08h46.34v-1.08z" fill="#62E0D9"/><path fill-rule="evenodd" clip-rule="evenodd" d="M37.14 36.59v2.46c0 .81.65 1.48 1.44 1.48H41m1.93 0v-.17a2 2 0 00-.56-1.4l-3.7-3.77a1.9 1.9 0 00-1.36-.57H26.54c-1.06 0-1.92.88-1.92 1.96v20.69c0 1.09.86 1.97 1.92 1.97H41c1.07 0 1.93-.88 1.93-1.97v-6.9" fill="#62E0D9"/><path d="M40.73 43.76l.22-.22-.22.22zm2.9 2.95l-.23.22.22-.22zm0 .43l-.23-.21.22.21zm-9.16 9.36l.22.22-.22-.22zm-3.33-3.39l-.22-.21.22.21zm9.15-9.35l-.22-.22.22.22zm-8.62 12.22h-.31c0 .17.14.3.3.3v-.3zm0-2.52l-.22-.22a.3.3 0 00-.09.21h.3zm2.45 2.51v.31a.3.3 0 00.22-.09l-.22-.22zm8.85-9.04l.22.21a.3.3 0 000-.43l-.22.22zM40.5 44.4l.22-.21a.3.3 0 00-.44 0l.22.21zm3.29-1.7l.22-.22-.22.22zm-2.49 0l-.22-.22.22.22zm3.33.87l-.22.21.22-.21zm0 2.52l-.22-.22.22.22zm-1.02 1.04l.22.22-.22-.22zm-.44 0l-.22.22.22-.22zM40.3 44.2l.22-.22-.22.22zm0-.43l.22.21-.22-.21zm1.46-.62l-.22-.21.22.21zm1.6 0l.23-.21-.22.21zm-2.4.83l-.23-.21a.3.3 0 000 .43l.22-.22zm2.45 2.52l-.22.21a.3.3 0 00.44 0l-.22-.22zm.8-.82l.22.21-.22-.21zm0-1.66l.22-.22-.22.22zm-3.25-.47a.62.62 0 00-.44-.19v.62l.44-.43zm2.9 2.95l-2.9-2.95-.44.43 2.9 2.96.43-.44zm0 .87a.62.62 0 000-.87l-.45.44.44.43zm-9.16 9.36l9.15-9.36-.44-.43-9.15 9.35.44.44zm-.44.18a.62.62 0 00.44-.18l-.44-.44v.62zm-2.89 0h2.89v-.62h-2.89v.62zm-.62-.62c0 .34.28.62.62.62v-.62h-.62zm0-2.95v2.95h.62v-2.95h-.62zm.18-.43a.62.62 0 00-.18.43h.62l-.44-.43zm9.15-9.36l-9.15 9.36.44.43 9.15-9.36-.44-.43zm.44-.19a.62.62 0 00-.44.19l.44.43v-.62zm-8.53 12.62v-2.52h-.62v2.52h.62zm2.14-.3h-2.45v.61h2.45v-.61zm8.63-8.96l-8.85 9.05.44.43 8.85-9.05-.44-.43zm-2.46-2.08l2.46 2.51.44-.43-2.46-2.51-.44.43zm-8.4 9.04l8.84-9.04-.44-.43-8.84 9.04.44.43zM44.02 42.5a2.04 2.04 0 00-2.93 0l.44.43a1.42 1.42 0 012.05 0l.44-.43zm.84.86l-.84-.86-.44.43.84.86.44-.43zm0 2.96c.8-.82.8-2.14 0-2.96l-.44.43a1.5 1.5 0 010 2.1l.44.42zm-1.02 1.04l1.02-1.04-.44-.44-1.02 1.05.44.43zm-.44.19a.62.62 0 00.44-.2l-.44-.42v.62zm-.44-.2a.62.62 0 00.44.2v-.62l-.44.43zm-2.9-2.95l2.9 2.96.44-.43-2.89-2.96-.44.43zm0-.86a.62.62 0 000 .87l.45-.44-.44-.43zm1.03-1.04l-1.02 1.04.44.43 1.02-1.04-.44-.43zm.88.86a.8.8 0 011.16 0l.45-.43a1.42 1.42 0 00-2.05 0l.44.43zm-.8.83l.8-.83-.44-.43-.8.83.43.43zm2.45 2.08l-2.46-2.51-.44.43 2.46 2.51.44-.43zm.36-.82l-.8.82.44.43.8-.82-.44-.43zm0-1.23c.33.34.33.9 0 1.23l.44.43a1.5 1.5 0 000-2.09l-.44.44zm-.85-.86l.85.86.44-.43-.84-.86-.45.43z" fill="#fff"/><path d="M28.47 43.85a.62.62 0 00-.62.61h.62v-.61zm9.63 0h-9.63v.61h9.63v-.61zm.62.61a.62.62 0 00-.62-.61v.61h.62zm-.62.62a.62.62 0 00.62-.61h-.62v.61zm-9.63 0h9.63v-.61h-9.63v.61zm-.62-.61c0 .34.28.61.62.61v-.61h-.62zm.62 2.33a.62.62 0 00-.62.62h.62v-.62zm8.67 0h-8.67v.62h8.67v-.62zm.62.62a.62.62 0 00-.62-.62v.62h.62zm-.62.62a.62.62 0 00.62-.62h-.62v.62zm-8.67 0h8.67v-.62h-8.67v.62zm-.62-.62c0 .34.28.62.62.62v-.62h-.62zm.62 2.34a.62.62 0 00-.62.61h.62v-.61zm5.78 0h-5.78v.61h5.78v-.61zm.62.61a.62.62 0 00-.62-.61v.61h.62zm-.62.62a.62.62 0 00.62-.62h-.62V51zm-5.78 0h5.78v-.62h-5.78V51zm-.62-.62c0 .35.28.62.62.62v-.62h-.62z" fill="#fff"/><path fill-rule="evenodd" clip-rule="evenodd" d="M30.28 61.1a2.76 2.76 0 01-2.76 2.75H8.15a2.76 2.76 0 01-2.77-2.75V47.36a2.76 2.76 0 012.77-2.75h19.36a2.76 2.76 0 012.77 2.75V61.1zm-16.6-11.45a2.3 2.3 0 01-2.3 2.3 2.3 2.3 0 01-2.3-2.3 2.3 2.3 0 012.3-2.29 2.3 2.3 0 012.3 2.3z" fill="#62E0D9"/><path d="M25.99 60.5l-5.42-5.73-2.26 2.39-3.16-3.35-6.33 6.7" stroke="#fff" stroke-width=".5" stroke-linecap="round" stroke-linejoin="round"/></svg>